<?xml version="1.0" encoding="iso-8859-1"?>
<!-- Generator: Adobe Illustrator 19.0.0, SVG Export Plug-In . SVG Version: 6.00 Build 0)  -->
<svg version="1.1" id="Layer_1" xmlns="http://www.w3.org/2000/svg" xmlns:xlink="http://www.w3.org/1999/xlink" x="0px" y="0px"
	 viewBox="0 0 299.995 299.995" style="enable-background:new 0 0 299.995 299.995;" xml:space="preserve">
<g>
	<g>
		<g>
			<path d="M298.617,286.378L152.4,6.672c-1.104-2.118-3.26-3.426-5.71-3.426c-2.399,0.032-4.581,1.391-5.653,3.535L0.677,287.501
				c-0.989,1.971-0.893,4.326,0.274,6.208c1.174,1.882,3.222,3.031,5.436,3.031h287.1c0.045,0.013,0.102,0.013,0.128,0
				c3.528,0,6.38-2.852,6.38-6.399C299.995,288.86,299.485,287.463,298.617,286.378z M16.71,283.979L146.869,23.65l136.073,260.33
				H16.71z"/>
			<path d="M122.95,120.128c-1.219,1.295-1.837,3.037-1.703,4.798l6.38,89.32c0.236,3.356,3.024,5.933,6.361,5.933h25.52
				c3.343,0,6.125-2.578,6.361-5.933l6.38-89.32c0.121-1.761-0.498-3.503-1.703-4.798c-1.193-1.295-2.89-2.029-4.657-2.029h-38.28
				C125.84,118.099,124.143,118.839,122.95,120.128z M159.035,130.859l-5.455,76.56h-13.653l-5.468-76.56H159.035z"/>
			<path d="M163.935,232.92h-34.369c-4.606,0-8.345,3.739-8.345,8.339v21.635c0,4.6,3.739,8.326,8.345,8.326h34.369
				c4.594,0,8.332-3.726,8.339-8.326v-21.635C172.274,236.659,168.535,232.92,163.935,232.92z M159.508,258.459h-25.52v-12.76h25.52
				V258.459z"/>
		</g>
	</g>
</g>
<g>
</g>
<g>
</g>
<g>
</g>
<g>
</g>
<g>
</g>
<g>
</g>
<g>
</g>
<g>
</g>
<g>
</g>
<g>
</g>
<g>
</g>
<g>
</g>
<g>
</g>
<g>
</g>
<g>
</g>
</svg>
